<?xml version="1.0" encoding="utf-8"?>
<!-- Generator: Adobe Illustrator 15.1.0, SVG Export Plug-In . SVG Version: 6.00 Build 0)  -->
<!DOCTYPE svg PUBLIC "-//W3C//DTD SVG 1.1//EN" "http://www.w3.org/Graphics/SVG/1.1/DTD/svg11.dtd">
<svg version="1.1" xmlns="http://www.w3.org/2000/svg" xmlns:xlink="http://www.w3.org/1999/xlink" x="0px" y="0px" width="36px"
	 height="36px" viewBox="0 0 36 36" style="enable-background:new 0 0 36 36;" xml:space="preserve">
<style type="text/css">
<![CDATA[
	.st0{font-family:'Metric-Regular';}
	.st1{font-size:8;}
	.st2{display:inline;fill:#FFFFFF;}
	.st3{display:inline;fill:none;stroke:#D1D3D4;stroke-width:0.25;stroke-miterlimit:10;}
	.st4{fill:#FFFFFF;}
	.st5{display:inline;}
	.st6{display:inline;fill:none;}
	.st7{display:inline;fill:none;stroke:#D1D2D3;stroke-width:0.25;stroke-miterlimit:10;}
	.st8{fill:#00B388;}
	.st9{display:none;}
]]>
</style>
<g id="white_bkgd_-_TURN_OFF" class="st9">
	<rect x="-17" y="-17" class="st2" width="70" height="70"/>
</g>
<g id="Grid_-_TURN_OFF" class="st9">
	<rect x="0.1123047" y="0.1123047" class="st3" width="35.7753906" height="35.7753906"/>
	<line class="st3" x1="35.8876953" y1="31.9121094" x2="0.1123047" y2="31.9121094"/>
	<line class="st3" x1="35.8876953" y1="27.9375" x2="0.1123047" y2="27.9375"/>
	<line class="st3" x1="35.8876953" y1="23.9628906" x2="0.1123047" y2="23.9628906"/>
	<line class="st3" x1="35.8876953" y1="19.9873047" x2="0.1123047" y2="19.9873047"/>
	<line class="st3" x1="35.8876953" y1="16.0126953" x2="0.1123047" y2="16.0126953"/>
	<line class="st3" x1="35.8876953" y1="12.0375977" x2="0.1123047" y2="12.0375977"/>
	<line class="st3" x1="35.8876953" y1="8.0625" x2="0.1123047" y2="8.0625"/>
	<line class="st3" x1="35.8876953" y1="4.0874023" x2="0.1123047" y2="4.0874023"/>
	<line class="st3" x1="4.0874023" y1="35.8876953" x2="4.0874023" y2="0.1123047"/>
	<line class="st3" x1="8.0625" y1="35.8876953" x2="8.0625" y2="0.1123047"/>
	<line class="st3" x1="12.0375977" y1="35.8876953" x2="12.0375977" y2="0.1123047"/>
	<line class="st3" x1="16.0126953" y1="35.8876953" x2="16.0126953" y2="0.1123047"/>
	<line class="st3" x1="19.9873047" y1="35.8876953" x2="19.9873047" y2="0.1123047"/>
	<line class="st3" x1="23.9628906" y1="35.8876953" x2="23.9628906" y2="0.1123047"/>
	<line class="st3" x1="27.9375" y1="35.8876953" x2="27.9375" y2="0.1123047"/>
	<line class="st3" x1="31.9121094" y1="35.8876953" x2="31.9121094" y2="0.1123047"/>
	<rect x="-39.6000977" y="-39.6000977" class="st7" width="115.199707" height="115.199707"/>
</g>
<g id="Title_-_TURN_OFF" class="st9">
	<rect x="-22.0556641" y="44.828125" class="st6" width="80.1103516" height="18.5908203"/>
	<text transform="matrix(1 0 0 1 2.3994141 50.0273438)" class="st5"><tspan x="0" y="0" class="st0 st1">S</tspan><tspan x="3.8881836" y="0" class="st0 st1">c</tspan><tspan x="7.144043" y="0" class="st0 st1">alability</tspan></text>
</g>
<g id="_x31__Color_Icon" class="st9">
	<g class="st5">
		<polygon class="st4" points="19.9980469,7 19.9980469,9 25.5849609,9.0009766 9,25.5859375 9,20 7,20 7,28.9990234 16,29 16,27 
			10.4150391,26.9990234 27,10.4140625 27,16 29,16 29,7.0009766 		"/>
		<g>
			<g>
				<rect y="34" class="st4" width="2" height="2"/>
			</g>
			<g>
				<rect x="4" y="34" class="st4" width="2" height="2"/>
			</g>
			<g>
				<rect x="8" y="34" class="st4" width="2" height="2"/>
			</g>
			<g>
				<rect x="12" y="34" class="st4" width="2" height="2"/>
			</g>
			<g>
				<rect x="16" y="34" class="st4" width="2" height="2"/>
			</g>
			<g>
				<rect y="26" class="st4" width="2" height="2"/>
			</g>
			<g>
				<rect y="22" class="st4" width="2" height="2"/>
			</g>
			<g>
				<rect y="18" class="st4" width="2" height="2"/>
			</g>
			<g>
				<rect y="30" class="st4" width="2" height="2"/>
			</g>
		</g>
		<g>
			<g>
				<rect x="34" class="st4" width="2" height="2"/>
			</g>
			<g>
				<rect x="30" class="st4" width="2" height="2"/>
			</g>
			<g>
				<rect x="26" class="st4" width="2" height="2"/>
			</g>
			<g>
				<rect x="22" class="st4" width="2" height="2"/>
			</g>
			<g>
				<rect x="18" class="st4" width="2" height="2"/>
			</g>
			<g>
				<rect x="34" y="8" class="st4" width="2" height="2"/>
			</g>
			<g>
				<rect x="34" y="12" class="st4" width="2" height="2"/>
			</g>
			<g>
				<rect x="34" y="16" class="st4" width="2" height="2"/>
			</g>
			<g>
				<rect x="34" y="4" class="st4" width="2" height="2"/>
			</g>
		</g>
	</g>
</g>
<g id="_x32__Color_Icon">
	<g>
		<polygon class="st8" points="19.9980469,7 19.9980469,9 25.5849609,9.0009766 9,25.5859375 9,20 7,20 7,28.9990234 16,29 16,27 
			10.4150391,26.9990234 27,10.4140625 27,16 29,16 29,7.0009766 		"/>
		<g>
			<g>
				<rect y="34" width="2" height="2"/>
			</g>
			<g>
				<rect x="4" y="34" width="2" height="2"/>
			</g>
			<g>
				<rect x="8" y="34" width="2" height="2"/>
			</g>
			<g>
				<rect x="12" y="34" width="2" height="2"/>
			</g>
			<g>
				<rect x="16" y="34" width="2" height="2"/>
			</g>
			<g>
				<rect y="26" width="2" height="2"/>
			</g>
			<g>
				<rect y="22" width="2" height="2"/>
			</g>
			<g>
				<rect y="18" width="2" height="2"/>
			</g>
			<g>
				<rect y="30" width="2" height="2"/>
			</g>
		</g>
		<g>
			<g>
				<rect x="34" width="2" height="2"/>
			</g>
			<g>
				<rect x="30" width="2" height="2"/>
			</g>
			<g>
				<rect x="26" width="2" height="2"/>
			</g>
			<g>
				<rect x="22" width="2" height="2"/>
			</g>
			<g>
				<rect x="18" width="2" height="2"/>
			</g>
			<g>
				<rect x="34" y="8" width="2" height="2"/>
			</g>
			<g>
				<rect x="34" y="12" width="2" height="2"/>
			</g>
			<g>
				<rect x="34" y="16" width="2" height="2"/>
			</g>
			<g>
				<rect x="34" y="4" width="2" height="2"/>
			</g>
		</g>
	</g>
</g>
<g id="_x31_C_EMF_Icon" class="st9">
	<g class="st5">
		<polygon class="st4" points="24.3935547,-17.2001953 24.3935547,-10.7998047 42.2714844,-10.796875 -10.7998047,42.2753906 
			-10.7998047,24.4003906 -17.2001953,24.4003906 -17.2001953,53.1972656 11.6000977,53.2001953 11.6000977,46.7998047 
			-6.2719727,46.796875 46.7998047,-6.2749023 46.7998047,11.6000977 53.2001953,11.6000977 53.2001953,-17.1967773 		"/>
		<g>
			<g>
				<rect x="-39.6000977" y="69.2001953" class="st4" width="6.3999023" height="6.3994141"/>
			</g>
			<g>
				<rect x="-26.7998047" y="69.2001953" class="st4" width="6.3999023" height="6.3994141"/>
			</g>
			<g>
				<rect x="-14" y="69.2001953" class="st4" width="6.3999023" height="6.3994141"/>
			</g>
			<g>
				<rect x="-1.2001953" y="69.2001953" class="st4" width="6.4003906" height="6.3994141"/>
			</g>
			<g>
				<rect x="11.6000977" y="69.2001953" class="st4" width="6.3999023" height="6.3994141"/>
			</g>
			<g>
				<rect x="-39.6000977" y="43.5996094" class="st4" width="6.3999023" height="6.4003906"/>
			</g>
			<g>
				<rect x="-39.6000977" y="30.7998047" class="st4" width="6.3999023" height="6.4003906"/>
			</g>
			<g>
				<rect x="-39.6000977" y="18" class="st4" width="6.3999023" height="6.4003906"/>
			</g>
			<g>
				<rect x="-39.6000977" y="56.4003906" class="st4" width="6.3999023" height="6.3994141"/>
			</g>
		</g>
		<g>
			<g>
				<rect x="69.2001953" y="-39.6000977" class="st4" width="6.3994141" height="6.3999023"/>
			</g>
			<g>
				<rect x="56.4003906" y="-39.6000977" class="st4" width="6.3994141" height="6.3999023"/>
			</g>
			<g>
				<rect x="43.5996094" y="-39.6000977" class="st4" width="6.4003906" height="6.3999023"/>
			</g>
			<g>
				<rect x="30.7998047" y="-39.6000977" class="st4" width="6.4003906" height="6.3999023"/>
			</g>
			<g>
				<rect x="18" y="-39.6000977" class="st4" width="6.4003906" height="6.3999023"/>
			</g>
			<g>
				<rect x="69.2001953" y="-14" class="st4" width="6.3994141" height="6.3999023"/>
			</g>
			<g>
				<rect x="69.2001953" y="-1.2001953" class="st4" width="6.3994141" height="6.4003906"/>
			</g>
			<g>
				<rect x="69.2001953" y="11.6000977" class="st4" width="6.3994141" height="6.3999023"/>
			</g>
			<g>
				<rect x="69.2001953" y="-26.7998047" class="st4" width="6.3994141" height="6.3999023"/>
			</g>
		</g>
	</g>
</g>
<g id="_x32_C_EMF_Icon" class="st9">
	<g class="st5">
		<polygon class="st8" points="24.3935547,-17.2001953 24.3935547,-10.7998047 42.2714844,-10.796875 -10.7998047,42.2753906 
			-10.7998047,24.4003906 -17.2001953,24.4003906 -17.2001953,53.1972656 11.6000977,53.2001953 11.6000977,46.7998047 
			-6.2719727,46.796875 46.7998047,-6.2749023 46.7998047,11.6000977 53.2001953,11.6000977 53.2001953,-17.1967773 		"/>
		<g>
			<g>
				<rect x="-39.6000977" y="69.2001953" width="6.3999023" height="6.3994141"/>
			</g>
			<g>
				<rect x="-26.7998047" y="69.2001953" width="6.3999023" height="6.3994141"/>
			</g>
			<g>
				<rect x="-14" y="69.2001953" width="6.3999023" height="6.3994141"/>
			</g>
			<g>
				<rect x="-1.2001953" y="69.2001953" width="6.4003906" height="6.3994141"/>
			</g>
			<g>
				<rect x="11.6000977" y="69.2001953" width="6.3999023" height="6.3994141"/>
			</g>
			<g>
				<rect x="-39.6000977" y="43.5996094" width="6.3999023" height="6.4003906"/>
			</g>
			<g>
				<rect x="-39.6000977" y="30.7998047" width="6.3999023" height="6.4003906"/>
			</g>
			<g>
				<rect x="-39.6000977" y="18" width="6.3999023" height="6.4003906"/>
			</g>
			<g>
				<rect x="-39.6000977" y="56.4003906" width="6.3999023" height="6.3994141"/>
			</g>
		</g>
		<g>
			<g>
				<rect x="69.2001953" y="-39.6000977" width="6.3994141" height="6.3999023"/>
			</g>
			<g>
				<rect x="56.4003906" y="-39.6000977" width="6.3994141" height="6.3999023"/>
			</g>
			<g>
				<rect x="43.5996094" y="-39.6000977" width="6.4003906" height="6.3999023"/>
			</g>
			<g>
				<rect x="30.7998047" y="-39.6000977" width="6.4003906" height="6.3999023"/>
			</g>
			<g>
				<rect x="18" y="-39.6000977" width="6.4003906" height="6.3999023"/>
			</g>
			<g>
				<rect x="69.2001953" y="-14" width="6.3994141" height="6.3999023"/>
			</g>
			<g>
				<rect x="69.2001953" y="-1.2001953" width="6.3994141" height="6.4003906"/>
			</g>
			<g>
				<rect x="69.2001953" y="11.6000977" width="6.3994141" height="6.3999023"/>
			</g>
			<g>
				<rect x="69.2001953" y="-26.7998047" width="6.3994141" height="6.3999023"/>
			</g>
		</g>
	</g>
</g>
</svg>
